<svg width="60" height="60" viewBox="0 0 60 60" fill="none" xmlns="http://www.w3.org/2000/svg">
<g clip-path="url(#clip0_203_19)">
<path fill-rule="evenodd" clip-rule="evenodd" d="M24.1377 8.50009C26.1778 9.16256 28.1428 10.0373 30.0002 11.1101C31.8577 10.0373 33.8226 9.16256 35.8627 8.50009C40.9727 6.88509 46.0627 7.17259 49.4452 10.5551C52.8277 13.9376 53.1152 19.0301 51.5002 24.1376C50.8376 26.1777 49.9629 28.1426 48.8902 30.0001C50.0302 32.0076 50.9027 33.9751 51.5002 35.8626C53.1152 40.9701 52.8277 46.0626 49.4452 49.4451C46.0652 52.8276 40.9702 53.1151 35.8627 51.5001C33.8226 50.8376 31.8577 49.9628 30.0002 48.8901C28.1428 49.9628 26.1778 50.8376 24.1377 51.5001C19.0302 53.1126 13.9377 52.8276 10.5552 49.4451C7.17271 46.0626 6.88771 40.9701 8.50021 35.8626C9.09771 33.9726 9.97021 32.0076 11.1102 30.0001C10.0375 28.1426 9.16268 26.1777 8.50021 24.1376C6.88771 19.0276 7.17521 13.9376 10.5552 10.5551C13.9377 7.17259 19.0302 6.88509 24.1377 8.50009ZM45.7252 34.7726C44.2502 36.7176 42.5402 38.6726 40.6077 40.6076C38.7813 42.4433 36.8318 44.1523 34.7727 45.7226C35.6702 46.1326 36.5377 46.4701 37.3702 46.7326C41.6152 48.0726 44.4102 47.4076 45.9102 45.9076C47.4102 44.4101 48.0752 41.6126 46.7352 37.3701C46.4521 36.4836 46.1148 35.6153 45.7252 34.7701V34.7726ZM14.2752 34.7726C13.8867 35.6171 13.5503 36.4845 13.2677 37.3701C11.9277 41.6151 12.5927 44.4101 14.0927 45.9101C15.5902 47.4101 18.3877 48.0726 22.6302 46.7326C23.4652 46.4701 24.3302 46.1326 25.2302 45.7226C23.1711 44.1523 21.2216 42.4433 19.3952 40.6076C17.5586 38.7813 15.8463 36.8317 14.2752 34.7726ZM30.0002 17.0001C27.4636 18.7517 25.0966 20.7371 22.9302 22.9301C20.7372 25.0965 18.7518 27.4635 17.0002 30.0001C18.7503 32.5365 20.734 34.9034 22.9252 37.0701C25.3327 39.4776 27.7152 41.4451 30.0002 43.0001C32.5368 41.2485 34.9038 39.2631 37.0702 37.0701C39.2624 34.9036 41.2469 32.5366 42.9977 30.0001C41.2479 27.4628 39.2642 25.0949 37.0727 22.9276C34.9053 20.7362 32.5374 18.7501 30.0002 17.0001ZM30.0002 26.2501C30.9948 26.2501 31.9486 26.6452 32.6519 27.3484C33.3551 28.0517 33.7502 29.0055 33.7502 30.0001C33.7502 30.9947 33.3551 31.9485 32.6519 32.6517C31.9486 33.355 30.9948 33.7501 30.0002 33.7501C29.0057 33.7501 28.0518 33.355 27.3486 32.6517C26.6453 31.9485 26.2502 30.9947 26.2502 30.0001C26.2502 29.0055 26.6453 28.0517 27.3486 27.3484C28.0518 26.6452 29.0057 26.2501 30.0002 26.2501ZM14.0902 14.0901C12.5902 15.5901 11.9277 18.3851 13.2677 22.6301C13.5302 23.4626 13.8677 24.3301 14.2777 25.2301C15.7527 23.2801 17.4602 21.3276 19.3952 19.3926C21.2208 17.557 23.1695 15.848 25.2277 14.2776C24.3833 13.8882 23.5158 13.5509 22.6302 13.2676C18.3877 11.9276 15.5902 12.5926 14.0902 14.0901ZM37.3702 13.2676C36.5377 13.5301 35.6702 13.8676 34.7727 14.2776C36.7177 15.7526 38.6727 17.4601 40.6077 19.3926C42.4443 21.2189 44.1541 23.1684 45.7252 25.2276C46.1352 24.3301 46.4702 23.4626 46.7327 22.6301C48.0752 18.3851 47.4102 15.5901 45.9102 14.0901C44.4102 12.5901 41.6152 11.9276 37.3702 13.2676Z" fill="black"/>
</g>
<defs>
<clipPath id="clip0_203_19">
<rect width="60" height="60" fill="white"/>
</clipPath>
</defs>
</svg>
