<?xml version="1.0" standalone="no"?>
<!DOCTYPE svg PUBLIC "-//W3C//DTD SVG 20010904//EN"
 "http://www.w3.org/TR/2001/REC-SVG-20010904/DTD/svg10.dtd">
<svg version="1.0" xmlns="http://www.w3.org/2000/svg"
 width="51px" height="51px" viewBox="0 0 512.000000 512.000000"
 preserveAspectRatio="xMidYMid meet">

<g transform="translate(0.000000,512.000000) scale(0.100000,-0.100000)"
fill="#000000" stroke="none">
<path d="M2464 4040 c-50 -16 -125 -71 -161 -118 -154 -204 -1 -506 257 -506
121 0 242 78 291 186 35 80 34 193 -4 270 -31 62 -84 116 -149 149 -48 25
-180 36 -234 19z"/>
<path d="M2485 2871 c-92 -24 -173 -90 -215 -176 -34 -69 -35 -198 -2 -265 34
-71 75 -114 144 -151 58 -31 70 -34 148 -33 72 0 93 4 136 26 75 40 107 70
145 140 31 58 34 70 34 148 0 78 -3 90 -34 148 -57 104 -144 160 -260 167 -36
2 -79 1 -96 -4z"/>
<path d="M2484 1696 c-93 -23 -175 -92 -216 -181 -35 -76 -33 -191 5 -267 30
-62 83 -115 149 -150 36 -19 58 -23 138 -23 80 0 102 4 138 23 66 35 119 88
149 150 38 76 40 191 5 267 -43 93 -130 163 -230 184 -63 13 -72 13 -138 -3z"/>
</g>
</svg>
